<svg xmlns="http://www.w3.org/2000/svg" xmlns:xlink="http://www.w3.org/1999/xlink" width="500" zoomAndPan="magnify" viewBox="0 0 375 374.999991" height="500" preserveAspectRatio="xMidYMid meet" version="1.0"><defs><clipPath id="eaae0ca8eb"><path d="M 23.585938 127.296875 L 351.335938 127.296875 L 351.335938 248 L 23.585938 248 Z M 23.585938 127.296875 " clip-rule="nonzero"/></clipPath></defs><g clip-path="url(#eaae0ca8eb)"><path fill="#10b981" d="M 316.511719 145.894531 C 338.339844 152.867188 339.648438 176.433594 327.597656 187.503906 C 316.242188 197.941406 295.007812 199.675781 279.230469 185.136719 C 292.074219 190.113281 304.171875 191.011719 315.035156 187.550781 C 305.503906 185.828125 294.101562 182.246094 284.886719 171.003906 C 292.890625 174.238281 300.726562 174.703125 308.992188 173.515625 C 288.910156 169.636719 279.957031 152.054688 266.226562 139.675781 C 258.90625 133.074219 251.011719 128.914062 242.257812 127.691406 C 232.972656 126.398438 222.09375 128.308594 214.75 132.988281 C 226.816406 131.742188 239.097656 135.417969 243.730469 143.042969 C 223.515625 132.941406 196.769531 136.664062 187.492188 155.140625 C 178.222656 136.667969 151.476562 132.941406 131.261719 143.042969 C 135.894531 135.414062 148.171875 131.742188 160.246094 132.988281 C 152.894531 128.3125 142.015625 126.398438 132.734375 127.695312 C 123.976562 128.914062 116.089844 133.074219 108.761719 139.675781 C 95.027344 152.058594 86.078125 169.640625 65.992188 173.519531 C 74.261719 174.707031 82.097656 174.242188 90.105469 171.003906 C 80.890625 182.25 69.480469 185.828125 59.957031 187.554688 C 70.8125 191.015625 82.90625 190.113281 95.761719 185.140625 C 79.976562 199.675781 58.742188 197.945312 47.390625 187.507812 C 35.339844 176.433594 36.648438 152.867188 58.480469 145.898438 C 21.984375 141.132812 7.695312 201.527344 49.265625 224.722656 C 41.316406 222.753906 33.445312 219.363281 25.703125 212.785156 C 51.96875 261.949219 134.542969 252.714844 157.339844 224.722656 C 157.273438 230.777344 155.09375 236.367188 151.683594 241.691406 C 167.042969 235.296875 182.1875 221.34375 187.492188 201.789062 C 192.796875 221.34375 207.941406 235.296875 223.304688 241.691406 C 219.894531 236.367188 217.710938 230.777344 217.652344 224.722656 C 240.441406 252.714844 323.023438 261.949219 349.285156 212.785156 C 341.546875 219.363281 333.671875 222.753906 325.726562 224.722656 C 367.296875 201.527344 353 141.132812 316.507812 145.894531 Z M 102.617188 227.96875 C 130.546875 221.578125 154.855469 208.761719 169.378906 178.484375 C 161.371094 211.511719 135.964844 228.707031 102.617188 227.96875 Z M 205.613281 178.484375 C 220.128906 208.761719 244.445312 221.578125 272.367188 227.96875 C 239.027344 228.707031 213.617188 211.511719 205.613281 178.484375 Z M 205.613281 178.484375 " fill-opacity="1" fill-rule="evenodd"/></g></svg>